<svg id="Layer_1" data-name="Layer 1" xmlns="http://www.w3.org/2000/svg" xmlns:xlink="http://www.w3.org/1999/xlink" viewBox="0 0 187 126"><defs><style>.cls-1{fill:none;}.cls-2{clip-path:url(#clip-path);}.cls-3,.cls-4{fill:#3c3c3c;}.cls-3{fill-rule:evenodd;}.cls-5{clip-path:url(#clip-path-2);}</style><clipPath id="clip-path"><rect class="cls-1" x="-963.43" y="-181.43" width="998" height="136"/></clipPath><clipPath id="clip-path-2"><rect class="cls-1" x="14.5" y="42.5" width="158" height="41"/></clipPath></defs><title>logo_5</title><g class="cls-2"><image width="1827" height="676" transform="translate(-942.57 -286.05) scale(0.53 0.56)" xlink:href="../Ref/logos_referenzen.png"/></g><rect class="cls-1" width="222" height="126"/><g id="layer1"><g id="g39870"><path id="path37627" class="cls-3" d="M29.2,65.5H23.4l3.08-10ZM20.69,75.6l1.81-6.1h7.44l1.78,6h6.14l-6.48-23c-.36-1.51-1.08-2-2.7-2H19.5v2h.82c1.09,0,1.63.34,1.63,1.18a4.34,4.34,0,0,1-.54,2.12L14.89,75.59"/><path id="path37629" class="cls-4" d="M45.5,75.5V52.35c0-1.22-.72-1.85-2-1.85h-5v2h.36c1.09,0,1.64.43,1.64,1.37V75.5"/><path id="path37631" class="cls-4" d="M55.5,75.5V52.35c0-1.22-.72-1.85-2-1.85h-5v2h.36c1.09,0,1.64.43,1.64,1.37V75.5"/><path id="path37633" class="cls-3" d="M66.14,52.28c0-1.67-1.27-2.65-3.26-2.65-2.17,0-3.26,1-3.26,2.65S60.71,55,62.88,55c2,0,3.26-1,3.26-2.69M65.5,75.5V58.37a1.71,1.71,0,0,0-1.81-1.87H58.5v2h.39c1.09-.08,1.61,1.4,1.61,1.4V75.5"/><path id="path37635" class="cls-3" d="M79.5,66.5v3.34a5.16,5.16,0,0,1-3.44,1.7c-1.09,0-1.63-.52-1.63-1.93,0-1.56.36-2.16,1.63-2.65a14.79,14.79,0,0,1,3.44-.89m-9-4.5.55-.22a13.26,13.26,0,0,1,5.07-1.14c1.81,0,2.35.6,2.35,2.26v.47s-2.4.56-3.85.87a13.85,13.85,0,0,0-2.17.73c-2.36.94-3.44,2.75-3.44,5.59,0,3.57,1.44,5.27,4.7,5.27a6.54,6.54,0,0,0,3.44-.87A6.64,6.64,0,0,0,79.5,72.9v.58c0,1.18,1.67,2,1.67,2H86.5v-2h-.08c-1.09-.22-1.92-1.68-1.92-1.68V62.56c0-4.81-1.63-6.44-6.34-6.44a19.4,19.4,0,0,0-4.53.52,13.51,13.51,0,0,0-3.8,1.45"/><path id="path37637" class="cls-3" d="M95.5,75.5V62.72a4.59,4.59,0,0,1,3.39-1.63c1.25,0,1.61.54,1.61,2.46v12h5v-13c0-2.66-.36-3.81-1.08-4.82a4.49,4.49,0,0,0-3.61-1.44c-2.16,0-3.79.8-6.31,3v-1c0-1.19-.54-1.77-1.62-1.77H87.5v2h.37c1.08-.08,1.63,1.4,1.63,1.4V75.5"/><g class="cls-5"><g id="g37643"><path id="path37645" class="cls-4" d="M123.5,71.5h-8.84l7.84-11.19V56.5h-12c-1.45,0-2,.54-2,1.83V61.5h2v.42c0-1,.5-1.42,1.5-1.42h4l-7.5,11.16V75.5h15"/><path id="path37647" class="cls-3" d="M155.5,74.5V52.85s-1-2.28-2.62-2.35H148.5v3h.83c.84,0,1.17.34,1.17,1.38V74.5Zm3-1h5V57.78a2.28,2.28,0,0,0-2.28-2.28H158.5Zm-12,0v-18h-2.65a2.35,2.35,0,0,0-2.35,2.35V73.5Zm23-10c0,10-7.25,17.25-17,17.25s-17-7.28-17-17.25,7.25-17.26,17-17.26,17,7.28,17,17.26m3.44,0C173,51.79,164.29,43,152.52,43a20,20,0,0,0-20.47,20.45A20.05,20.05,0,0,0,152.52,84C164.29,84,173,75.18,173,63.47"/></g></g></g></g></svg>