<svg id="Layer_1" data-name="Layer 1" xmlns="http://www.w3.org/2000/svg" xmlns:xlink="http://www.w3.org/1999/xlink" viewBox="0 0 187 126"><defs><style>.cls-1{fill:none;}.cls-2{clip-path:url(#clip-path);}.cls-3{fill:#4d4d4d;}.cls-4{fill:#a0a0a0;}.cls-5{fill:#ddd;}.cls-6,.cls-7{fill:#494949;}.cls-6{fill-rule:evenodd;}</style><clipPath id="clip-path"><rect class="cls-1" x="-250.43" y="-181.43" width="998" height="136"/></clipPath></defs><title>logo_2</title><g class="cls-2"><image width="1827" height="676" transform="translate(-229.57 -286.05) scale(0.53 0.56)" xlink:href="../Ref/logos_referenzen.png"/></g><g id="layer1"><g id="g42472"><path id="path29276" class="cls-3" d="M51,69.26a7.16,7.16,0,1,1,7.16,7.15A7.15,7.15,0,0,1,51,69.26"/><path id="path29280" class="cls-3" d="M67.17,69.26a7.16,7.16,0,1,1,7.16,7.15,7.16,7.16,0,0,1-7.16-7.15"/><path id="path29284" class="cls-3" d="M83.34,69.26a7.16,7.16,0,1,1,7.16,7.15,7.16,7.16,0,0,1-7.16-7.15"/><path id="path29288" class="cls-3" d="M99.51,69.26a7.16,7.16,0,1,1,7.16,7.15,7.16,7.16,0,0,1-7.16-7.15"/><path id="path29292" class="cls-3" d="M115.68,69.26a7.16,7.16,0,1,1,7.16,7.15,7.16,7.16,0,0,1-7.16-7.15"/><path id="path29296" class="cls-4" d="M51,53.08a7.16,7.16,0,1,1,7.16,7.16A7.16,7.16,0,0,1,51,53.08"/><path id="path29300" class="cls-4" d="M67.17,53.08a7.16,7.16,0,1,1,7.16,7.16,7.17,7.17,0,0,1-7.16-7.16"/><path id="path29304" class="cls-4" d="M83.34,53.08a7.16,7.16,0,1,1,7.16,7.16,7.17,7.17,0,0,1-7.16-7.16"/><path id="path29308" class="cls-4" d="M99.51,53.08a7.16,7.16,0,1,1,7.16,7.16,7.17,7.17,0,0,1-7.16-7.16"/><path id="path29312" class="cls-4" d="M115.68,53.08a7.16,7.16,0,1,1,7.16,7.16,7.17,7.17,0,0,1-7.16-7.16"/><path id="path29316" class="cls-5" d="M51,36.91a7.16,7.16,0,1,1,7.16,7.16A7.16,7.16,0,0,1,51,36.91"/><path id="path29320" class="cls-5" d="M67.17,36.91a7.16,7.16,0,1,1,7.16,7.16,7.17,7.17,0,0,1-7.16-7.16"/><path id="path29324" class="cls-5" d="M83.34,36.91a7.16,7.16,0,1,1,7.16,7.16,7.17,7.17,0,0,1-7.16-7.16"/><path id="path29328" class="cls-5" d="M99.51,36.91a7.16,7.16,0,1,1,7.16,7.16,7.17,7.17,0,0,1-7.16-7.16"/><g id="xfrm327"><path id="path29338" class="cls-5" d="M115.68,36.91a7.16,7.16,0,1,1,7.16,7.16,7.17,7.17,0,0,1-7.16-7.16"/></g><g id="xfrm329"><path id="path29342" class="cls-6" d="M59.57,82.14a5.05,5.05,0,0,1,5,5,5.22,5.22,0,0,1-.8,3.13l-1.27-1.42-3.6.56L61.31,92a6.26,6.26,0,0,1-2,.26A5.07,5.07,0,0,1,54.54,87a5,5,0,0,1,5-4.81m8.48,5a10.44,10.44,0,0,1-2,5.61l2.61,2.6-3.57.86-1.45-1.53a9.6,9.6,0,0,1-3.94.86A8.57,8.57,0,0,1,51,86.92a8.52,8.52,0,0,1,17,.26"/></g><path id="path29346" class="cls-7" d="M115,79.29h3.64L125.06,89V79.29h3.37V95.16h-3.19l-6.91-9.74v9.74H115Z"/><path id="path29348" class="cls-7" d="M68.79,79.29h3.85V95.16H68.79Z"/><path id="path29352" class="cls-7" d="M104.38,79.29h9.14v2.88h-5.77v3.37h5.77v3.37h-5.77v3.36h5.77v2.89h-9.14Z"/><path id="path29356" class="cls-6" d="M80.88,83.59l1.93,5.8h-4l2-5.8m-2.12-4.3h4.33l6,15.87h-4L84,92.27H77.72l-1.19,2.89H72.64v0Z"/><path id="path29360" class="cls-7" d="M102.45,83.19a7.72,7.72,0,0,0-7.46-4,8.23,8.23,0,0,0,.33,16.45c3.78,0,8.18-2.37,8.1-8.62H95.73v2.89h4c-.73,1.91-2.6,2.46-4.28,2.46a5.05,5.05,0,0,1-4.84-4.89,5,5,0,0,1,9-3l2.87-1.28"/></g></g></svg>